<mxfile host="app.diagrams.net" agent="Mozilla/5.0 (Windows NT 10.0; Win64; x64) AppleWebKit/537.36 (KHTML, like Gecko) Chrome/134.0.0.0 YaBrowser/25.4.0.0 Safari/537.36" version="26.2.14">
  <diagram name="Страница — 1" id="BlmAZIHzfZ_XEpePlAZ4">
    <mxGraphModel dx="1225" dy="1901" grid="1" gridSize="10" guides="1" tooltips="1" connect="1" arrows="1" fold="1" page="1" pageScale="1" pageWidth="827" pageHeight="1169" math="0" shadow="0">
      <root>
        <mxCell id="0" />
        <mxCell id="1" parent="0" />
        <mxCell id="LPGfRJEELo__UDh2Sruj-1" value="" style="rounded=0;whiteSpace=wrap;html=1;" vertex="1" parent="1">
          <mxGeometry x="180" y="-310" width="1800" height="1180" as="geometry" />
        </mxCell>
        <mxCell id="LPGfRJEELo__UDh2Sruj-6" style="edgeStyle=orthogonalEdgeStyle;rounded=0;orthogonalLoop=1;jettySize=auto;html=1;" edge="1" parent="1" source="LPGfRJEELo__UDh2Sruj-2" target="LPGfRJEELo__UDh2Sruj-5">
          <mxGeometry relative="1" as="geometry" />
        </mxCell>
        <mxCell id="LPGfRJEELo__UDh2Sruj-32" style="edgeStyle=orthogonalEdgeStyle;rounded=0;orthogonalLoop=1;jettySize=auto;html=1;entryX=0;entryY=0.5;entryDx=0;entryDy=0;" edge="1" parent="1" source="LPGfRJEELo__UDh2Sruj-2" target="LPGfRJEELo__UDh2Sruj-31">
          <mxGeometry relative="1" as="geometry" />
        </mxCell>
        <mxCell id="LPGfRJEELo__UDh2Sruj-44" style="edgeStyle=orthogonalEdgeStyle;rounded=0;orthogonalLoop=1;jettySize=auto;html=1;entryX=0;entryY=0.5;entryDx=0;entryDy=0;" edge="1" parent="1" source="LPGfRJEELo__UDh2Sruj-2" target="LPGfRJEELo__UDh2Sruj-43">
          <mxGeometry relative="1" as="geometry" />
        </mxCell>
        <mxCell id="LPGfRJEELo__UDh2Sruj-2" value="User" style="shape=umlActor;verticalLabelPosition=bottom;verticalAlign=top;html=1;outlineConnect=0;" vertex="1" parent="1">
          <mxGeometry x="90" y="190" width="30" height="60" as="geometry" />
        </mxCell>
        <mxCell id="LPGfRJEELo__UDh2Sruj-10" style="edgeStyle=orthogonalEdgeStyle;rounded=0;orthogonalLoop=1;jettySize=auto;html=1;exitX=0.5;exitY=0;exitDx=0;exitDy=0;entryX=0;entryY=0.5;entryDx=0;entryDy=0;dashed=1;" edge="1" parent="1" source="LPGfRJEELo__UDh2Sruj-5" target="LPGfRJEELo__UDh2Sruj-7">
          <mxGeometry relative="1" as="geometry" />
        </mxCell>
        <mxCell id="LPGfRJEELo__UDh2Sruj-15" style="edgeStyle=orthogonalEdgeStyle;rounded=0;orthogonalLoop=1;jettySize=auto;html=1;exitX=0.5;exitY=1;exitDx=0;exitDy=0;entryX=0;entryY=0.5;entryDx=0;entryDy=0;dashed=1;" edge="1" parent="1" source="LPGfRJEELo__UDh2Sruj-5" target="LPGfRJEELo__UDh2Sruj-14">
          <mxGeometry relative="1" as="geometry" />
        </mxCell>
        <mxCell id="LPGfRJEELo__UDh2Sruj-5" value="Регистрация" style="ellipse;whiteSpace=wrap;html=1;" vertex="1" parent="1">
          <mxGeometry x="260" y="180" width="120" height="80" as="geometry" />
        </mxCell>
        <mxCell id="LPGfRJEELo__UDh2Sruj-7" value="Указать пароль" style="ellipse;whiteSpace=wrap;html=1;" vertex="1" parent="1">
          <mxGeometry x="440" y="80" width="120" height="80" as="geometry" />
        </mxCell>
        <mxCell id="LPGfRJEELo__UDh2Sruj-9" value="include" style="text;html=1;align=center;verticalAlign=middle;whiteSpace=wrap;rounded=0;" vertex="1" parent="1">
          <mxGeometry x="330" y="90" width="60" height="30" as="geometry" />
        </mxCell>
        <mxCell id="LPGfRJEELo__UDh2Sruj-46" style="edgeStyle=orthogonalEdgeStyle;rounded=0;orthogonalLoop=1;jettySize=auto;html=1;exitX=0;exitY=0.5;exitDx=0;exitDy=0;entryX=0;entryY=1;entryDx=0;entryDy=0;dashed=1;" edge="1" parent="1" source="LPGfRJEELo__UDh2Sruj-12" target="LPGfRJEELo__UDh2Sruj-16">
          <mxGeometry relative="1" as="geometry">
            <Array as="points">
              <mxPoint x="400" y="220" />
              <mxPoint x="400" y="220" />
            </Array>
          </mxGeometry>
        </mxCell>
        <mxCell id="LPGfRJEELo__UDh2Sruj-12" value="Привязать электронную почту" style="ellipse;whiteSpace=wrap;html=1;" vertex="1" parent="1">
          <mxGeometry x="440" y="180" width="120" height="80" as="geometry" />
        </mxCell>
        <mxCell id="LPGfRJEELo__UDh2Sruj-14" value="Привязать номер телефона" style="ellipse;whiteSpace=wrap;html=1;" vertex="1" parent="1">
          <mxGeometry x="440" y="280" width="120" height="80" as="geometry" />
        </mxCell>
        <mxCell id="LPGfRJEELo__UDh2Sruj-16" value="extend" style="text;html=1;align=center;verticalAlign=middle;whiteSpace=wrap;rounded=0;" vertex="1" parent="1">
          <mxGeometry x="380" y="190" width="60" height="30" as="geometry" />
        </mxCell>
        <mxCell id="LPGfRJEELo__UDh2Sruj-18" value="include" style="text;html=1;align=center;verticalAlign=middle;whiteSpace=wrap;rounded=0;" vertex="1" parent="1">
          <mxGeometry x="350" y="280" width="60" height="30" as="geometry" />
        </mxCell>
        <mxCell id="LPGfRJEELo__UDh2Sruj-49" style="edgeStyle=orthogonalEdgeStyle;rounded=0;orthogonalLoop=1;jettySize=auto;html=1;entryX=0;entryY=0.5;entryDx=0;entryDy=0;" edge="1" parent="1" source="LPGfRJEELo__UDh2Sruj-19" target="LPGfRJEELo__UDh2Sruj-21">
          <mxGeometry relative="1" as="geometry" />
        </mxCell>
        <mxCell id="LPGfRJEELo__UDh2Sruj-50" style="edgeStyle=orthogonalEdgeStyle;rounded=0;orthogonalLoop=1;jettySize=auto;html=1;" edge="1" parent="1" source="LPGfRJEELo__UDh2Sruj-19" target="LPGfRJEELo__UDh2Sruj-22">
          <mxGeometry relative="1" as="geometry" />
        </mxCell>
        <mxCell id="LPGfRJEELo__UDh2Sruj-19" value="" style="html=1;whiteSpace=wrap;shape=isoCube2;backgroundOutline=1;isoAngle=15;" vertex="1" parent="1">
          <mxGeometry x="60" y="630" width="90" height="100" as="geometry" />
        </mxCell>
        <mxCell id="LPGfRJEELo__UDh2Sruj-20" value="System" style="text;html=1;align=center;verticalAlign=middle;resizable=0;points=[];autosize=1;strokeColor=none;fillColor=none;" vertex="1" parent="1">
          <mxGeometry x="75" y="730" width="60" height="30" as="geometry" />
        </mxCell>
        <mxCell id="LPGfRJEELo__UDh2Sruj-21" value="Отправка уведомлений юзеру" style="ellipse;whiteSpace=wrap;html=1;" vertex="1" parent="1">
          <mxGeometry x="260" y="520" width="120" height="80" as="geometry" />
        </mxCell>
        <mxCell id="LPGfRJEELo__UDh2Sruj-22" value="Проверка состояния подписки" style="ellipse;whiteSpace=wrap;html=1;" vertex="1" parent="1">
          <mxGeometry x="260" y="660" width="120" height="80" as="geometry" />
        </mxCell>
        <mxCell id="LPGfRJEELo__UDh2Sruj-39" style="edgeStyle=orthogonalEdgeStyle;rounded=0;orthogonalLoop=1;jettySize=auto;html=1;exitX=0.5;exitY=1;exitDx=0;exitDy=0;entryX=0;entryY=0.5;entryDx=0;entryDy=0;dashed=1;dashPattern=12 12;" edge="1" parent="1" source="LPGfRJEELo__UDh2Sruj-31" target="LPGfRJEELo__UDh2Sruj-35">
          <mxGeometry relative="1" as="geometry" />
        </mxCell>
        <mxCell id="LPGfRJEELo__UDh2Sruj-40" style="edgeStyle=orthogonalEdgeStyle;rounded=0;orthogonalLoop=1;jettySize=auto;html=1;exitX=1;exitY=0.5;exitDx=0;exitDy=0;dashed=1;dashPattern=12 12;" edge="1" parent="1" source="LPGfRJEELo__UDh2Sruj-31" target="LPGfRJEELo__UDh2Sruj-34">
          <mxGeometry relative="1" as="geometry" />
        </mxCell>
        <mxCell id="LPGfRJEELo__UDh2Sruj-31" value="Войти в систему" style="ellipse;whiteSpace=wrap;html=1;" vertex="1" parent="1">
          <mxGeometry x="260" y="-160" width="120" height="80" as="geometry" />
        </mxCell>
        <mxCell id="LPGfRJEELo__UDh2Sruj-36" style="edgeStyle=orthogonalEdgeStyle;rounded=0;orthogonalLoop=1;jettySize=auto;html=1;exitX=0;exitY=0.5;exitDx=0;exitDy=0;entryX=0.5;entryY=0;entryDx=0;entryDy=0;dashed=1;dashPattern=12 12;" edge="1" parent="1" source="LPGfRJEELo__UDh2Sruj-33" target="LPGfRJEELo__UDh2Sruj-31">
          <mxGeometry relative="1" as="geometry" />
        </mxCell>
        <mxCell id="LPGfRJEELo__UDh2Sruj-33" value="Поменять пароль" style="ellipse;whiteSpace=wrap;html=1;" vertex="1" parent="1">
          <mxGeometry x="440" y="-280" width="120" height="80" as="geometry" />
        </mxCell>
        <mxCell id="LPGfRJEELo__UDh2Sruj-34" value="Ввести номер телефона или электронную почту" style="ellipse;whiteSpace=wrap;html=1;" vertex="1" parent="1">
          <mxGeometry x="440" y="-160" width="120" height="80" as="geometry" />
        </mxCell>
        <mxCell id="LPGfRJEELo__UDh2Sruj-35" value="Ввести пароль" style="ellipse;whiteSpace=wrap;html=1;" vertex="1" parent="1">
          <mxGeometry x="440" y="-50" width="120" height="80" as="geometry" />
        </mxCell>
        <mxCell id="LPGfRJEELo__UDh2Sruj-37" value="extend" style="text;html=1;align=center;verticalAlign=middle;whiteSpace=wrap;rounded=0;" vertex="1" parent="1">
          <mxGeometry x="330" y="-270" width="60" height="30" as="geometry" />
        </mxCell>
        <mxCell id="LPGfRJEELo__UDh2Sruj-41" value="include" style="text;html=1;align=center;verticalAlign=middle;whiteSpace=wrap;rounded=0;" vertex="1" parent="1">
          <mxGeometry x="370" y="-150" width="60" height="30" as="geometry" />
        </mxCell>
        <mxCell id="LPGfRJEELo__UDh2Sruj-42" value="include" style="text;html=1;align=center;verticalAlign=middle;whiteSpace=wrap;rounded=0;" vertex="1" parent="1">
          <mxGeometry x="354" y="-40" width="60" height="30" as="geometry" />
        </mxCell>
        <mxCell id="LPGfRJEELo__UDh2Sruj-47" style="edgeStyle=orthogonalEdgeStyle;rounded=0;orthogonalLoop=1;jettySize=auto;html=1;exitX=1;exitY=0.5;exitDx=0;exitDy=0;entryX=0;entryY=0.5;entryDx=0;entryDy=0;dashed=1;" edge="1" parent="1" source="LPGfRJEELo__UDh2Sruj-43" target="LPGfRJEELo__UDh2Sruj-45">
          <mxGeometry relative="1" as="geometry" />
        </mxCell>
        <mxCell id="LPGfRJEELo__UDh2Sruj-43" value="Поиск литературы" style="ellipse;whiteSpace=wrap;html=1;" vertex="1" parent="1">
          <mxGeometry x="260" y="380" width="120" height="80" as="geometry" />
        </mxCell>
        <mxCell id="LPGfRJEELo__UDh2Sruj-45" value="Указать автора либо название книги" style="ellipse;whiteSpace=wrap;html=1;" vertex="1" parent="1">
          <mxGeometry x="440" y="380" width="120" height="80" as="geometry" />
        </mxCell>
        <mxCell id="LPGfRJEELo__UDh2Sruj-48" value="include" style="text;html=1;align=center;verticalAlign=middle;whiteSpace=wrap;rounded=0;" vertex="1" parent="1">
          <mxGeometry x="380" y="400" width="60" height="30" as="geometry" />
        </mxCell>
      </root>
    </mxGraphModel>
  </diagram>
</mxfile>
